<svg xmlns="http://www.w3.org/2000/svg" viewBox="0 0 128 128" width="128" height="128">
  <defs>
    <linearGradient id="grad" x1="0%" y1="0%" x2="100%" y2="100%">
      <stop offset="0%" stop-color="#4f46e5" />
      <stop offset="100%" stop-color="#9333ea" />
    </linearGradient>
    <filter id="shadow" x="-20%" y="-20%" width="140%" height="140%">
      <feDropShadow dx="0" dy="4" stdDeviation="6" flood-color="#000" flood-opacity="0.3"/>
    </filter>
  </defs>
  <rect width="128" height="128" rx="28" fill="url(#grad)" />
  <g filter="url(#shadow)" fill="#ffffff">
    <path d="M64 24 c-2.2 0 -4 1.8 -4 4 v2.5 C46.7 32.8 38 43.6 38 56.5 v17.5 l-6 6 v3 h64 v-3 l-6 -6 V56.5 c0 -12.9 -8.7 -23.7 -22 -26 V28 c0 -2.2 -1.8 -4 -4 -4 z"/>
    <path d="M64 92 c4.4 0 8 -3.6 8 -8 H56 c0 4.4 3.6 8 8 8 z"/>
  </g>
  <circle cx="94" cy="34" r="10" fill="#ef4444" stroke="#ffffff" stroke-width="3"/>
</svg>
